<svg id="Layer_1" data-name="Layer 1" xmlns="http://www.w3.org/2000/svg" xmlns:xlink="http://www.w3.org/1999/xlink" viewBox="0 0 512 512"><defs><linearGradient id="linear-gradient" x1="256" y1="799.95" x2="256" y2="-287.9" gradientUnits="userSpaceOnUse"><stop offset="0" stop-color="#231f20"/><stop offset="1" stop-color="#58595b"/></linearGradient></defs><title>key</title><path d="M209,226.7,209,429c0,16,.07,49,12.35,62.88,27.19,30.62,37.62,22.61,55.55.79,17-20.59,15.52-19.14,5.1-43.48l.1-34.71c20.67-33.51,19.09-50.45-12.76-73.38l.21-.21c25.92-21.34,30.68-16.62,10.63-46.76l-.3-26.72c24.45-.14,23.07-20.46,23-40.64,43.3-17.92,73.64-59.87,73.64-108.74,0-65.14-54-118-120.59-118S135.43,52.85,135.43,118c0,48.84,30.33,90.77,73.56,108.71ZM256,35.31c19.49,0,35.29,15.45,35.29,34.52s-15.8,34.52-35.29,34.52-35.25-15.47-35.25-34.52S236.54,35.31,256,35.31Z" fill-rule="evenodd" fill="url(#linear-gradient)"/></svg>